<?xml version="1.0" encoding="UTF-8"?>
<svg id="_層_1" data-name=" 層 1" xmlns="http://www.w3.org/2000/svg" xmlns:xlink="http://www.w3.org/1999/xlink" viewBox="0 0 141.12 48">
  <defs>
    <style>
      .cls-1 {
        fill: #fff;
      }

      .cls-2 {
        fill: url(#_命名漸層_49);
      }
    </style>
    <linearGradient id="_命名漸層_49" data-name="未命名漸層 49" x1="70.56" y1="0" x2="70.56" y2="48" gradientTransform="matrix(1, 0, 0, 1, 0, 0)" gradientUnits="userSpaceOnUse">
      <stop offset="0" stop-color="#c5e922"/>
      <stop offset="1" stop-color="#68c700"/>
    </linearGradient>
  </defs>
  <rect class="cls-2" width="141.12" height="48" rx="12" ry="12"/>
  <g>
    <path class="cls-1" d="M61.35,21.52l-1.41,1.84c-2.2-1.08-3.94-2.19-5.23-3.33v1.74h-9.83v-1.45c-1.92,1.35-3.68,2.37-5.28,3.03l-1.35-1.82c1.82-.8,3.26-1.57,4.32-2.31-.76-.56-1.65-1.11-2.68-1.66l1.49-1.66c1.18,.69,2.17,1.35,2.96,1.97,.95-.8,1.75-1.72,2.4-2.78h-6.59v-2.03h9.15v2.03c-.78,1.64-2,3.19-3.66,4.63h8.76c-1.93-1.86-3.35-4.09-4.27-6.69l2.03-.62c.35,.9,.77,1.76,1.27,2.58,1.04-.79,1.89-1.67,2.55-2.65l1.87,1.22c-.81,1.17-1.88,2.24-3.2,3.22,.3,.39,.65,.78,1.07,1.17,1.04-.8,2.07-1.87,3.1-3.2l1.82,1.21c-.74,1.13-1.79,2.27-3.15,3.4,.81,.68,2.1,1.4,3.86,2.16Zm-.55,13.28h-22v-2.09h6.68c-.36-.7-.8-1.42-1.29-2.16l1.66-1.04h-3.77v-6.19h15.48v6.19h-3.88l1.75,.99c-.3,.71-.66,1.45-1.09,2.21h6.47v2.09Zm-5.62-7.3v-2.21h-10.71v2.21h10.71Zm-1.97,2.01h-6.89c.67,1.13,1.24,2.2,1.71,3.2h3.75c.56-1.05,1.04-2.12,1.43-3.2Z"/>
    <path class="cls-1" d="M100.41,33.66l-1.82,1.73c-4.95-4.32-8.11-9.03-9.47-14.15-1.73,5.92-5.08,10.57-10.05,13.96l-1.69-1.82c2.24-1.48,4.18-3.28,5.81-5.41,1.63-2.12,2.87-4.45,3.73-6.99s1.28-4.19,1.28-4.97l-.08-.52h-3.15v-2.31h5.33c.23,4.99,1.21,9.05,2.96,12.16s4.13,5.88,7.15,8.32Z"/>
  </g>
</svg>